<svg width="21" height="15" viewBox="0 0 21 15" fill="none" xmlns="http://www.w3.org/2000/svg">
<path d="M0.244141 14.0494H3.99001V6.06803C3.99001 4.23412 5.15202 3.30417 6.59839 3.30417C7.91614 3.30417 8.71677 4.07907 8.71677 5.80973V14.0494H12.4364V6.06803C12.4364 4.23412 13.5984 3.30417 15.0448 3.30417C16.3879 3.30417 17.1631 4.07907 17.1631 5.80973V14.0494H20.8828V5.39647C20.8828 1.80608 18.9455 0.230469 16.4395 0.230469C14.735 0.230469 12.9789 0.953657 11.8939 2.58098C11.2481 0.979557 9.90501 0.230469 8.12264 0.230469C6.10751 0.230469 4.66114 1.34111 3.99001 2.60679V0.540394H0.244141V14.0494Z" fill="white"/>
</svg>
